<svg width="19" height="19" viewBox="0 0 19 19" fill="none" xmlns="http://www.w3.org/2000/svg">
<path d="M18.0557 9.58618C18.0557 14.5784 14.0127 18.5862 9.05566 18.5862C4.06348 18.5862 0.0556641 14.5784 0.0556641 9.58618C0.0556641 4.62915 4.06348 0.586182 9.05566 0.586182C14.0127 0.586182 18.0557 4.62915 18.0557 9.58618ZM6.24316 6.49243V12.6799C6.24316 12.9963 6.38379 13.2776 6.66504 13.4182C6.91113 13.594 7.2627 13.5588 7.50879 13.4182L12.5713 10.3245C12.8174 10.1838 12.9932 9.90259 12.9932 9.58618C12.9932 9.30493 12.8174 9.02368 12.5713 8.88306L7.50879 5.78931C7.2627 5.61353 6.91113 5.61353 6.66504 5.78931C6.38379 5.92993 6.24316 6.21118 6.24316 6.49243Z" fill="#FD9D02"/>
</svg>
