<svg width="19" height="14" viewBox="0 0 19 14" fill="none" xmlns="http://www.w3.org/2000/svg">
<path d="M16.3475 0C17.2616 0 18.035 0.773438 18.035 1.6875C18.035 2.25 17.7538 2.74219 17.3319 3.05859L9.703 8.78906C9.28113 9.10547 8.75378 9.10547 8.33191 8.78906L0.703003 3.05859C0.281128 2.74219 0.0350342 2.25 0.0350342 1.6875C0.0350342 0.773438 0.773315 0 1.72253 0H16.3475ZM7.66394 9.70312C8.47253 10.3008 9.56238 10.3008 10.371 9.70312L18.035 3.9375V11.25C18.035 12.5156 17.0155 13.5 15.785 13.5H2.28503C1.01941 13.5 0.0350342 12.5156 0.0350342 11.25V3.9375L7.66394 9.70312Z" fill="#011936"/>
</svg>
