<svg width="17" height="17" viewBox="0 0 17 17" fill="none" xmlns="http://www.w3.org/2000/svg">
<path d="M10.3438 2.5625C9.85156 2.5625 9.5 2.21094 9.5 1.71875C9.5 1.26172 9.85156 0.875 10.3438 0.875H15.4062C15.8633 0.875 16.25 1.26172 16.25 1.71875V6.78125C16.25 7.27344 15.8633 7.625 15.4062 7.625C14.9141 7.625 14.5625 7.27344 14.5625 6.78125V3.75781L7.53125 10.7539C7.21484 11.1055 6.6875 11.1055 6.37109 10.7539C6.01953 10.4375 6.01953 9.91016 6.37109 9.55859L13.3672 2.5625H10.3438ZM0.5 3.96875C0.5 2.91406 1.37891 2 2.46875 2H6.40625C6.86328 2 7.25 2.38672 7.25 2.84375C7.25 3.33594 6.86328 3.6875 6.40625 3.6875H2.46875C2.29297 3.6875 2.1875 3.82812 2.1875 3.96875V14.6562C2.1875 14.832 2.29297 14.9375 2.46875 14.9375H13.1562C13.2969 14.9375 13.4375 14.832 13.4375 14.6562V10.7188C13.4375 10.2617 13.7891 9.875 14.2812 9.875C14.7383 9.875 15.125 10.2617 15.125 10.7188V14.6562C15.125 15.7461 14.2109 16.625 13.1562 16.625H2.46875C1.37891 16.625 0.5 15.7461 0.5 14.6562V3.96875Z" fill="#FD9E02"/>
</svg>
