<svg width="289" height="289" viewBox="0 0 289 289" fill="none" xmlns="http://www.w3.org/2000/svg">
<path d="M154.986 57.0334C156.996 54.5554 160.936 55.1833 162.076 58.1636L169.84 78.4471C170.98 81.4274 168.467 84.525 165.315 84.0227L143.868 80.6041C140.716 80.1019 139.291 76.3764 141.301 73.8984L154.986 57.0334Z" fill="#0F356B"/>
<path d="M134.278 232.571C132.267 235.049 128.328 234.421 127.187 231.441L119.424 211.157C118.283 208.177 120.797 205.079 123.948 205.581L145.396 209C148.547 209.502 149.973 213.228 147.962 215.706L134.278 232.571Z" fill="#0F356B"/>
<path d="M232.401 155.156C234.879 157.167 234.251 161.106 231.27 162.247L210.987 170.01C208.007 171.151 204.909 168.637 205.411 165.486L208.83 144.038C209.332 140.887 213.058 139.461 215.536 141.472L232.401 155.156Z" fill="#0F356B"/>
<path d="M56.8631 134.448C54.3851 132.438 55.013 128.498 57.9933 127.358L78.2768 119.594C81.2572 118.454 84.3547 120.967 83.8524 124.118L80.4339 145.566C79.9316 148.717 76.2062 150.143 73.7282 148.133L56.8631 134.448Z" fill="#0F356B"/>
<path d="M199.372 214.186C199.703 217.36 196.473 219.701 193.559 218.4L173.727 209.547C170.813 208.246 170.4 204.279 172.984 202.406L190.567 189.657C193.15 187.784 196.793 189.41 197.123 192.584L199.372 214.186Z" fill="#0F356B"/>
<path d="M89.8913 75.419C89.5609 72.2449 92.7903 69.9035 95.7043 71.2043L115.536 80.0574C118.45 81.3582 118.863 85.3257 116.28 87.1989L98.6969 99.9475C96.1133 101.821 92.4708 100.195 92.1404 97.0206L89.8913 75.419Z" fill="#0F356B"/>
<path d="M75.2485 199.543C72.0745 199.873 69.733 196.644 71.0338 193.73L79.8869 173.898C81.1877 170.984 85.1553 170.571 87.0284 173.154L99.777 190.737C101.65 193.321 100.024 196.963 96.8502 197.294L75.2485 199.543Z" fill="#0F356B"/>
<path d="M214.015 90.0617C217.189 89.7313 219.53 92.9607 218.23 95.8747L209.376 115.707C208.076 118.621 204.108 119.034 202.235 116.45L189.486 98.8673C187.613 96.2837 189.239 92.6412 192.413 92.3108L214.015 90.0617Z" fill="#0F356B"/>
<path d="M122.995 59.1144C123.989 56.0822 127.893 55.2635 130.022 57.6408L144.51 73.8204C146.639 76.1978 145.396 79.9881 142.273 80.643L121.017 85.1005C117.893 85.7554 115.232 82.7838 116.227 79.7515L122.995 59.1144Z" fill="#0F356B"/>
<path d="M166.269 230.49C165.275 233.522 161.371 234.341 159.242 231.963L144.753 215.784C142.625 213.406 143.868 209.616 146.991 208.961L168.247 204.504C171.37 203.849 174.031 206.82 173.037 209.853L166.269 230.49Z" fill="#0F356B"/>
<path d="M230.32 123.165C233.352 124.16 234.17 128.064 231.793 130.192L215.614 144.681C213.236 146.809 209.446 145.566 208.791 142.443L204.334 121.187C203.679 118.064 206.65 115.403 209.682 116.397L230.32 123.165Z" fill="#0F356B"/>
<path d="M58.9442 166.439C55.9119 165.445 55.0932 161.541 57.4706 159.412L73.6502 144.924C76.0275 142.795 79.8178 144.038 80.4728 147.161L84.9302 168.417C85.5852 171.54 82.6135 174.201 79.5812 173.207L58.9442 166.439Z" fill="#0F356B"/>
<path d="M220.522 190.093C221.963 192.94 219.781 196.28 216.595 196.104L194.909 194.908C191.723 194.732 189.922 191.173 191.667 188.502L203.546 170.319C205.291 167.648 209.274 167.868 210.715 170.715L220.522 190.093Z" fill="#0F356B"/>
<path d="M68.7418 99.5117C67.3008 96.6644 69.4825 93.3249 72.6688 93.5006L94.3543 94.6966C97.5406 94.8723 99.3418 98.4314 97.5965 101.103L85.718 119.285C83.9727 121.957 79.9898 121.737 78.5488 118.89L68.7418 99.5117Z" fill="#0F356B"/>
<path d="M99.3411 220.692C96.4938 222.133 93.1543 219.952 93.3301 216.765L94.526 195.08C94.7017 191.894 98.2608 190.092 100.932 191.838L119.115 203.716C121.786 205.462 121.567 209.444 118.719 210.885L99.3411 220.692Z" fill="#0F356B"/>
<path d="M189.922 68.912C192.77 67.471 196.109 69.6527 195.933 72.839L194.738 94.5245C194.562 97.7108 191.003 99.5121 188.331 97.7667L170.149 85.8883C167.477 84.1429 167.697 80.16 170.544 78.7191L189.922 68.912Z" fill="#0F356B"/>
<path d="M212.731 154.928C206.746 192.475 171.456 218.062 133.909 212.078C96.3613 206.093 70.7745 170.803 76.7592 133.256C82.7438 95.708 118.034 70.1212 155.581 76.1058C193.129 82.0905 218.716 117.38 212.731 154.928Z" fill="#184685"/>
<path d="M139.296 49.7783C140.841 46.9859 144.829 46.9126 146.475 49.6465L159.017 70.4767C160.663 73.2106 158.732 76.7011 155.542 76.7597L131.231 77.2061C128.041 77.2647 125.983 73.8474 127.528 71.0549L139.296 49.7783Z" fill="#184685"/>
<path d="M149.967 239.826C148.423 242.618 144.434 242.691 142.788 239.957L130.247 219.127C128.601 216.393 130.531 212.903 133.722 212.844L158.032 212.398C161.223 212.339 163.281 215.757 161.736 218.549L149.967 239.826Z" fill="#184685"/>
<path d="M239.656 139.467C242.448 141.011 242.521 145 239.787 146.646L218.957 159.187C216.223 160.833 212.733 158.903 212.674 155.712L212.228 131.402C212.169 128.211 215.587 126.154 218.379 127.698L239.656 139.467Z" fill="#184685"/>
<path d="M49.6081 150.138C46.8156 148.593 46.7424 144.605 49.4763 142.959L70.3065 130.417C73.0404 128.771 76.5309 130.702 76.5895 133.892L77.0359 158.203C77.0945 161.393 73.6771 163.451 70.8847 161.906L49.6081 150.138Z" fill="#184685"/>
<path d="M215.596 208.221C216.479 211.288 213.71 214.16 210.613 213.391L187.016 207.53C183.919 206.761 182.816 202.928 185.03 200.63L201.905 183.124C204.12 180.827 207.991 181.788 208.873 184.855L215.596 208.221Z" fill="#184685"/>
<path d="M73.6671 81.3828C72.7848 78.3161 75.5531 75.4442 78.6502 76.2134L102.248 82.0742C105.345 82.8434 106.448 86.6768 104.233 88.9744L87.3587 106.48C85.144 108.778 81.2727 107.816 80.3903 104.749L73.6671 81.3828Z" fill="#184685"/>
<path d="M81.2124 215.767C78.1457 216.649 75.2738 213.881 76.043 210.784L81.9038 187.186C82.673 184.089 86.5064 182.986 88.804 185.201L106.31 202.075C108.607 204.29 107.646 208.161 104.579 209.044L81.2124 215.767Z" fill="#184685"/>
<path d="M208.051 73.8375C211.118 72.9552 213.99 75.7235 213.22 78.8206L207.36 102.418C206.59 105.515 202.757 106.618 200.459 104.403L182.954 87.5291C180.656 85.3144 181.618 81.443 184.684 80.5607L208.051 73.8375Z" fill="#184685"/>
<path d="M105.749 57.9336C106.196 54.7739 109.896 53.2827 112.409 55.2495L131.556 70.2352C134.069 72.202 133.511 76.1517 130.551 77.3446L107.999 86.4339C105.04 87.6268 101.898 85.1683 102.345 82.0086L105.749 57.9336Z" fill="#184685"/>
<path d="M183.514 231.67C183.067 234.83 179.368 236.321 176.855 234.354L157.707 219.369C155.194 217.402 155.753 213.452 158.713 212.259L181.264 203.17C184.224 201.977 187.365 204.436 186.918 207.595L183.514 231.67Z" fill="#184685"/>
<path d="M231.5 105.92C234.66 106.367 236.151 110.066 234.184 112.579L219.199 131.727C217.232 134.24 213.282 133.681 212.089 130.721L203 108.17C201.807 105.21 204.266 102.069 207.425 102.515L231.5 105.92Z" fill="#184685"/>
<path d="M57.7634 183.684C54.6036 183.238 53.1125 179.538 55.0793 177.025L70.065 157.877C72.0318 155.364 75.9815 155.923 77.1744 158.883L86.2636 181.434C87.4566 184.394 84.9981 187.536 81.8383 187.089L57.7634 183.684Z" fill="#184685"/>
<path d="M233.551 178.734C235.469 181.284 233.908 184.954 230.74 185.341L206.604 188.283C203.436 188.669 201.039 185.482 202.288 182.545L211.807 160.172C213.057 157.235 217.016 156.753 218.935 159.303L233.551 178.734Z" fill="#184685"/>
<path d="M55.7126 110.871C53.7942 108.321 55.356 104.65 58.5237 104.264L82.6594 101.321C85.8271 100.935 88.225 104.123 86.9756 107.059L77.4562 129.433C76.2069 132.369 72.2472 132.852 70.3289 130.302L55.7126 110.871Z" fill="#184685"/>
<path d="M110.7 233.722C108.15 235.64 104.48 234.078 104.093 230.91L101.151 206.775C100.764 203.607 103.952 201.209 106.889 202.458L129.262 211.978C132.199 213.227 132.681 217.187 130.131 219.105L110.7 233.722Z" fill="#184685"/>
<path d="M178.563 55.8828C181.113 53.9645 184.784 55.5262 185.17 58.6939L188.113 82.8296C188.499 85.9973 185.311 88.3952 182.375 87.1459L160.001 77.6265C157.065 76.3771 156.582 72.4175 159.132 70.4991L178.563 55.8828Z" fill="#184685"/>
<path d="M218.403 142.676C219.151 183.427 186.723 217.068 145.972 217.816C105.222 218.564 71.5806 186.136 70.8324 145.386C70.0841 104.635 102.512 70.994 143.263 70.2458C184.013 69.4975 217.655 101.926 218.403 142.676Z" fill="#184685"/>
<path d="M98.0118 144.444C97.8913 144.635 97.7674 144.776 97.64 144.867C97.5212 144.949 97.3652 144.989 97.1721 144.986C96.9874 144.983 96.7868 144.917 96.5704 144.788C96.3625 144.65 96.117 144.504 95.8338 144.348C95.5506 144.193 95.2252 144.049 94.8577 143.918C94.4903 143.778 94.0589 143.704 93.5635 143.696C92.6902 143.683 92.0323 143.871 91.5897 144.259C91.1473 144.638 90.9213 145.143 90.9117 145.773C90.9056 146.176 91.0181 146.513 91.2492 146.786C91.4887 147.05 91.8002 147.281 92.1835 147.48C92.5752 147.679 93.0176 147.858 93.5107 148.017C94.0039 148.175 94.5093 148.351 95.0271 148.544C95.545 148.728 96.0498 148.945 96.5416 149.196C97.0333 149.447 97.4695 149.76 97.8501 150.136C98.2392 150.511 98.5472 150.969 98.7742 151.51C99.0097 152.043 99.1217 152.691 99.1101 153.455C99.0975 154.287 98.9388 155.065 98.6339 155.791C98.3375 156.509 97.9123 157.137 97.3582 157.674C96.8043 158.203 96.122 158.617 95.3112 158.916C94.5088 159.214 93.5997 159.356 92.5837 159.341C92.0043 159.332 91.4258 159.264 90.8483 159.138C90.2791 159.012 89.7274 158.84 89.1932 158.622C88.6673 158.404 88.1716 158.144 87.7058 157.843C87.24 157.542 86.8335 157.209 86.4864 156.842L87.6217 155.071C87.7161 154.938 87.8395 154.83 87.9919 154.749C88.1445 154.659 88.3047 154.615 88.4726 154.617C88.6993 154.621 88.9374 154.708 89.1867 154.88C89.4361 155.052 89.723 155.241 90.0474 155.447C90.3718 155.654 90.7469 155.844 91.1726 156.019C91.6066 156.193 92.126 156.285 92.7305 156.294C93.6122 156.308 94.2953 156.116 94.78 155.72C95.2731 155.325 95.5257 154.728 95.5378 153.93C95.5447 153.469 95.4286 153.093 95.1895 152.804C94.9587 152.515 94.6516 152.271 94.2683 152.072C93.885 151.873 93.4466 151.703 92.9533 151.561C92.46 151.411 91.9544 151.248 91.4363 151.072C90.9183 150.896 90.4133 150.687 89.9215 150.444C89.4296 150.202 88.9935 149.884 88.6131 149.492C88.2327 149.1 87.9251 148.617 87.6902 148.042C87.4637 147.468 87.3569 146.756 87.3697 145.908C87.38 145.228 87.5243 144.571 87.8027 143.937C88.081 143.303 88.4842 142.742 89.0123 142.254C89.5404 141.767 90.1845 141.378 90.9448 141.087C91.7134 140.796 92.589 140.658 93.5714 140.673C94.6713 140.69 95.6847 140.877 96.6115 141.236C97.5469 141.586 98.3332 142.068 98.9706 142.682L98.0118 144.444ZM107.983 153.942C107.134 153.971 106.428 154.036 105.863 154.137C105.299 154.229 104.848 154.357 104.51 154.52C104.18 154.683 103.942 154.872 103.796 155.088C103.658 155.296 103.587 155.526 103.584 155.778C103.576 156.282 103.709 156.641 103.983 156.855C104.265 157.069 104.658 157.18 105.162 157.188C105.742 157.196 106.243 157.103 106.666 156.908C107.097 156.705 107.526 156.388 107.952 155.957L107.983 153.942ZM100.991 148.079C101.766 147.402 102.618 146.903 103.546 146.581C104.475 146.251 105.477 146.094 106.552 146.11C107.324 146.122 108.011 146.258 108.612 146.519C109.221 146.78 109.732 147.141 110.145 147.6C110.566 148.052 110.886 148.59 111.103 149.215C111.32 149.84 111.423 150.521 111.412 151.26L111.289 159.422L109.702 159.398C109.374 159.393 109.123 159.343 108.948 159.248C108.782 159.153 108.646 158.958 108.541 158.662L108.277 157.827C107.945 158.107 107.622 158.354 107.308 158.568C107.003 158.782 106.685 158.962 106.355 159.108C106.026 159.246 105.671 159.35 105.292 159.419C104.922 159.489 104.505 159.521 104.044 159.514C103.473 159.505 102.953 159.422 102.485 159.264C102.017 159.105 101.614 158.877 101.274 158.578C100.942 158.27 100.688 157.893 100.51 157.445C100.332 156.997 100.247 156.483 100.256 155.904C100.263 155.425 100.392 154.949 100.643 154.474C100.894 153.999 101.316 153.573 101.909 153.195C102.511 152.81 103.306 152.498 104.292 152.261C105.287 152.016 106.527 151.888 108.014 151.877L108.024 151.209C108.036 150.395 107.873 149.796 107.535 149.413C107.196 149.021 106.704 148.821 106.057 148.811C105.579 148.804 105.179 148.857 104.858 148.969C104.537 149.074 104.254 149.191 104.009 149.322C103.772 149.444 103.547 149.563 103.336 149.677C103.124 149.783 102.88 149.834 102.603 149.83C102.359 149.826 102.154 149.764 101.988 149.644C101.831 149.516 101.698 149.367 101.592 149.197L100.991 148.079ZM125.831 146.653L120.534 159.562L117.385 159.514L112.481 146.452L115.365 146.495C115.617 146.499 115.826 146.561 115.992 146.681C116.158 146.801 116.273 146.954 116.338 147.14L118.42 153.596C118.556 154.035 118.675 154.465 118.778 154.887C118.881 155.3 118.971 155.717 119.049 156.138C119.147 155.719 119.255 155.305 119.37 154.895C119.494 154.477 119.635 154.051 119.792 153.617L122.144 147.228C122.206 147.044 122.321 146.894 122.491 146.779C122.661 146.664 122.859 146.609 123.085 146.612L125.831 146.653ZM135.054 151.756C135.059 151.395 135.014 151.05 134.918 150.721C134.831 150.392 134.684 150.1 134.478 149.845C134.272 149.59 134.01 149.389 133.693 149.241C133.377 149.085 132.996 149.004 132.551 148.997C131.719 148.985 131.065 149.21 130.588 149.673C130.111 150.136 129.794 150.803 129.638 151.675L135.054 151.756ZM129.556 153.739C129.647 154.958 129.978 155.854 130.549 156.425C131.128 156.996 131.888 157.289 132.828 157.304C133.307 157.311 133.719 157.262 134.065 157.158C134.419 157.046 134.728 156.925 134.99 156.795C135.261 156.656 135.502 156.534 135.714 156.428C135.934 156.313 136.149 156.258 136.359 156.261C136.627 156.265 136.836 156.369 136.984 156.573L137.973 157.847C137.597 158.27 137.184 158.621 136.735 158.9C136.285 159.17 135.82 159.385 135.339 159.546C134.858 159.698 134.374 159.8 133.886 159.852C133.398 159.911 132.927 159.938 132.474 159.931C131.567 159.917 130.721 159.758 129.936 159.452C129.16 159.138 128.482 158.687 127.903 158.098C127.333 157.502 126.886 156.769 126.563 155.899C126.24 155.029 126.088 154.023 126.105 152.881C126.118 151.999 126.274 151.17 126.571 150.394C126.877 149.617 127.307 148.943 127.861 148.372C128.416 147.801 129.086 147.354 129.872 147.029C130.658 146.697 131.542 146.538 132.525 146.553C133.356 146.566 134.118 146.712 134.811 146.991C135.512 147.262 136.111 147.653 136.607 148.164C137.112 148.676 137.497 149.303 137.763 150.046C138.037 150.781 138.167 151.619 138.153 152.559C138.149 152.819 138.133 153.033 138.106 153.201C138.078 153.368 138.034 153.502 137.974 153.602C137.913 153.702 137.833 153.772 137.731 153.812C137.63 153.845 137.499 153.859 137.34 153.857L129.556 153.739ZM146.188 146.823C146.335 145.935 146.599 145.158 146.979 144.491C147.358 143.825 147.829 143.274 148.389 142.837C148.95 142.401 149.585 142.078 150.294 141.871C151.011 141.655 151.781 141.553 152.604 141.566C153.477 141.579 154.256 141.717 154.941 141.979C155.634 142.233 156.217 142.578 156.689 143.013C157.161 143.449 157.519 143.954 157.762 144.528C158.013 145.103 158.134 145.718 158.124 146.373C158.116 146.953 158.045 147.464 157.912 147.907C157.788 148.342 157.602 148.721 157.353 149.045C157.113 149.369 156.815 149.641 156.459 149.863C156.111 150.084 155.71 150.267 155.254 150.411C157.343 151.132 158.371 152.546 158.339 154.653C158.325 155.585 158.141 156.405 157.786 157.114C157.431 157.814 156.96 158.399 156.373 158.869C155.787 159.339 155.105 159.69 154.329 159.921C153.562 160.145 152.758 160.25 151.918 160.238C151.028 160.224 150.245 160.112 149.568 159.9C148.891 159.688 148.295 159.377 147.78 158.966C147.274 158.555 146.841 158.044 146.481 157.434C146.12 156.816 145.808 156.097 145.543 155.279L147.089 154.672C147.495 154.51 147.869 154.47 148.212 154.55C148.564 154.631 148.813 154.82 148.96 155.116C149.123 155.438 149.295 155.734 149.475 156.006C149.664 156.277 149.875 156.516 150.107 156.721C150.339 156.917 150.601 157.073 150.894 157.186C151.194 157.3 151.538 157.36 151.924 157.365C152.411 157.373 152.836 157.299 153.2 157.145C153.563 156.991 153.868 156.79 154.116 156.542C154.363 156.285 154.548 155.998 154.67 155.681C154.801 155.356 154.869 155.033 154.874 154.714C154.88 154.294 154.848 153.916 154.778 153.579C154.707 153.233 154.536 152.941 154.262 152.702C153.997 152.454 153.597 152.263 153.061 152.129C152.534 151.987 151.813 151.909 150.898 151.895L150.935 149.452C151.699 149.463 152.326 149.41 152.814 149.291C153.303 149.173 153.688 149.002 153.969 148.78C154.249 148.557 154.442 148.287 154.548 147.969C154.662 147.652 154.722 147.304 154.727 146.927C154.739 146.129 154.539 145.517 154.125 145.091C153.72 144.665 153.135 144.446 152.371 144.434C152.035 144.429 151.724 144.475 151.437 144.571C151.159 144.66 150.905 144.786 150.675 144.95C150.455 145.115 150.263 145.31 150.1 145.534C149.937 145.758 149.815 146.004 149.736 146.272C149.57 146.689 149.36 146.967 149.106 147.106C148.852 147.237 148.486 147.26 148.009 147.178L146.188 146.823ZM173.536 151.217C173.512 152.812 173.319 154.195 172.957 155.365C172.595 156.536 172.105 157.503 171.489 158.266C170.873 159.021 170.147 159.581 169.31 159.946C168.481 160.303 167.588 160.475 166.631 160.46C165.674 160.446 164.787 160.247 163.969 159.866C163.152 159.475 162.451 158.894 161.867 158.12C161.282 157.339 160.827 156.358 160.5 155.177C160.182 153.997 160.035 152.609 160.059 151.013C160.083 149.418 160.272 148.039 160.626 146.877C160.988 145.707 161.473 144.744 162.08 143.989C162.688 143.226 163.406 142.665 164.235 142.308C165.063 141.943 165.956 141.767 166.913 141.782C167.871 141.796 168.758 141.999 169.575 142.389C170.401 142.771 171.11 143.353 171.703 144.135C172.296 144.908 172.756 145.885 173.082 147.065C173.409 148.238 173.56 149.622 173.536 151.217ZM169.946 151.163C169.966 149.87 169.89 148.802 169.718 147.959C169.554 147.117 169.329 146.45 169.042 145.959C168.756 145.467 168.421 145.122 168.038 144.923C167.663 144.724 167.274 144.622 166.871 144.616C166.468 144.61 166.076 144.7 165.695 144.888C165.323 145.075 164.986 145.41 164.684 145.893C164.392 146.376 164.151 147.035 163.962 147.872C163.773 148.709 163.668 149.774 163.649 151.067C163.629 152.369 163.701 153.441 163.865 154.283C164.028 155.125 164.249 155.792 164.527 156.284C164.814 156.775 165.14 157.12 165.507 157.319C165.882 157.518 166.271 157.62 166.674 157.626C167.077 157.632 167.469 157.542 167.85 157.354C168.239 157.167 168.584 156.832 168.885 156.35C169.186 155.867 169.432 155.207 169.621 154.37C169.818 153.533 169.927 152.464 169.946 151.163ZM183.685 146.659C183.675 147.339 183.548 147.954 183.304 148.505C183.061 149.056 182.734 149.529 182.325 149.926C181.925 150.315 181.462 150.615 180.939 150.825C180.415 151.027 179.872 151.124 179.309 151.115C178.688 151.106 178.118 150.992 177.601 150.775C177.084 150.548 176.635 150.235 176.255 149.835C175.883 149.426 175.592 148.943 175.382 148.385C175.18 147.828 175.085 147.209 175.095 146.529C175.106 145.824 175.22 145.191 175.439 144.632C175.666 144.064 175.971 143.586 176.355 143.197C176.747 142.8 177.205 142.496 177.729 142.286C178.253 142.075 178.826 141.975 179.447 141.984C180.068 141.993 180.642 142.111 181.168 142.338C181.693 142.564 182.142 142.881 182.514 143.29C182.894 143.691 183.185 144.178 183.386 144.752C183.596 145.318 183.696 145.954 183.685 146.659ZM181.015 146.618C181.022 146.165 180.985 145.787 180.906 145.483C180.827 145.171 180.713 144.922 180.565 144.735C180.425 144.548 180.254 144.415 180.054 144.336C179.854 144.249 179.64 144.204 179.414 144.201C179.187 144.197 178.972 144.236 178.769 144.317C178.575 144.39 178.405 144.517 178.26 144.7C178.123 144.882 178.01 145.128 177.921 145.438C177.841 145.739 177.797 146.116 177.79 146.57C177.784 147.015 177.816 147.385 177.887 147.68C177.967 147.975 178.072 148.216 178.204 148.403C178.344 148.581 178.51 148.71 178.702 148.788C178.902 148.867 179.116 148.908 179.342 148.911C179.569 148.915 179.784 148.88 179.986 148.808C180.189 148.735 180.363 148.612 180.509 148.437C180.662 148.255 180.784 148.018 180.872 147.725C180.96 147.432 181.008 147.063 181.015 146.618ZM189.663 142.857C189.783 142.724 189.923 142.604 190.084 142.498C190.254 142.391 190.486 142.34 190.78 142.344L193.311 142.383L179.377 159.947C179.257 160.088 179.113 160.208 178.943 160.306C178.774 160.396 178.568 160.439 178.324 160.435L175.742 160.396L189.663 142.857ZM193.944 156.376C193.933 157.056 193.807 157.671 193.563 158.222C193.32 158.772 192.993 159.246 192.584 159.643C192.184 160.032 191.721 160.331 191.197 160.542C190.674 160.744 190.13 160.841 189.568 160.832C188.947 160.823 188.377 160.709 187.86 160.491C187.342 160.265 186.894 159.952 186.513 159.551C186.142 159.143 185.851 158.659 185.641 158.102C185.439 157.545 185.344 156.926 185.354 156.246C185.365 155.54 185.479 154.908 185.698 154.349C185.925 153.781 186.23 153.303 186.614 152.914C187.006 152.517 187.464 152.217 187.988 152.015C188.512 151.805 189.084 151.704 189.706 151.713C190.327 151.723 190.901 151.841 191.426 152.067C191.952 152.285 192.401 152.598 192.773 153.007C193.153 153.407 193.444 153.895 193.645 154.469C193.855 155.035 193.954 155.67 193.944 156.376ZM191.274 156.335C191.28 155.882 191.244 155.503 191.165 155.2C191.085 154.888 190.972 154.638 190.823 154.451C190.683 154.264 190.513 154.132 190.313 154.053C190.113 153.966 189.899 153.921 189.672 153.917C189.446 153.914 189.231 153.953 189.028 154.034C188.834 154.106 188.664 154.234 188.518 154.417C188.381 154.599 188.268 154.845 188.18 155.155C188.1 155.456 188.056 155.833 188.049 156.287C188.043 156.732 188.075 157.102 188.146 157.397C188.225 157.692 188.331 157.933 188.463 158.119C188.603 158.298 188.769 158.426 188.961 158.505C189.161 158.584 189.375 158.625 189.601 158.628C189.828 158.631 190.043 158.597 190.245 158.524C190.448 158.452 190.622 158.328 190.767 158.154C190.921 157.972 191.042 157.734 191.131 157.442C191.219 157.149 191.267 156.78 191.274 156.335ZM200.318 142.488L200.209 149.693C200.197 150.457 200.144 151.212 200.049 151.958C199.962 152.704 199.841 153.479 199.686 154.283L197.343 154.248C197.213 153.439 197.111 152.661 197.038 151.912C196.974 151.164 196.948 150.408 196.959 149.644L197.068 142.439L200.318 142.488ZM196.354 158.881C196.358 158.604 196.412 158.345 196.516 158.103C196.629 157.852 196.78 157.64 196.967 157.467C197.154 157.285 197.371 157.146 197.616 157.048C197.869 156.943 198.143 156.893 198.437 156.897C198.722 156.901 198.986 156.96 199.228 157.073C199.478 157.177 199.694 157.323 199.876 157.511C200.058 157.69 200.202 157.906 200.308 158.16C200.413 158.405 200.464 158.666 200.459 158.943C200.455 159.229 200.397 159.492 200.284 159.734C200.171 159.976 200.021 160.188 199.833 160.37C199.646 160.543 199.425 160.679 199.172 160.776C198.927 160.873 198.662 160.919 198.376 160.915C198.082 160.91 197.81 160.856 197.56 160.751C197.318 160.647 197.106 160.505 196.924 160.326C196.742 160.138 196.598 159.922 196.493 159.677C196.396 159.432 196.349 159.167 196.354 158.881Z" fill="#FD9E02"/>
<path d="M106.238 129.52C106.238 129.914 106.189 130.267 106.091 130.579C105.995 130.891 105.853 131.155 105.662 131.372C105.475 131.586 105.243 131.75 104.967 131.865C104.691 131.98 104.375 132.037 104.017 132.037C103.691 132.037 103.36 131.991 103.021 131.899C103.028 131.804 103.036 131.711 103.046 131.619C103.056 131.523 103.064 131.43 103.071 131.338C103.077 131.282 103.097 131.238 103.13 131.205C103.166 131.169 103.22 131.151 103.292 131.151C103.351 131.151 103.429 131.165 103.524 131.195C103.622 131.224 103.754 131.239 103.918 131.239C104.135 131.239 104.329 131.206 104.499 131.141C104.67 131.075 104.813 130.973 104.928 130.835C105.043 130.697 105.13 130.522 105.189 130.308C105.251 130.091 105.283 129.835 105.283 129.54V124.899H106.238V129.52ZM117.45 128.431C117.45 128.96 117.366 129.446 117.199 129.889C117.031 130.329 116.795 130.709 116.489 131.027C116.184 131.346 115.816 131.594 115.386 131.771C114.959 131.945 114.486 132.032 113.967 132.032C113.448 132.032 112.975 131.945 112.548 131.771C112.121 131.594 111.755 131.346 111.449 131.027C111.144 130.709 110.907 130.329 110.74 129.889C110.572 129.446 110.489 128.96 110.489 128.431C110.489 127.902 110.572 127.418 110.74 126.978C110.907 126.534 111.144 126.153 111.449 125.835C111.755 125.513 112.121 125.263 112.548 125.086C112.975 124.908 113.448 124.82 113.967 124.82C114.486 124.82 114.959 124.908 115.386 125.086C115.816 125.263 116.184 125.513 116.489 125.835C116.795 126.153 117.031 126.534 117.199 126.978C117.366 127.418 117.45 127.902 117.45 128.431ZM116.47 128.431C116.47 127.997 116.411 127.608 116.292 127.263C116.174 126.919 116.007 126.628 115.79 126.391C115.573 126.152 115.31 125.968 115.002 125.84C114.693 125.711 114.348 125.647 113.967 125.647C113.589 125.647 113.246 125.711 112.937 125.84C112.629 125.968 112.364 126.152 112.144 126.391C111.927 126.628 111.76 126.919 111.642 127.263C111.523 127.608 111.464 127.997 111.464 128.431C111.464 128.865 111.523 129.254 111.642 129.599C111.76 129.94 111.927 130.231 112.144 130.471C112.364 130.707 112.629 130.889 112.937 131.018C113.246 131.142 113.589 131.205 113.967 131.205C114.348 131.205 114.693 131.142 115.002 131.018C115.31 130.889 115.573 130.707 115.79 130.471C116.007 130.231 116.174 129.94 116.292 129.599C116.411 129.254 116.47 128.865 116.47 128.431ZM122.729 131.958H121.774V124.899H122.729V131.958ZM133.211 124.899V131.958H132.733C132.658 131.958 132.594 131.945 132.541 131.919C132.492 131.893 132.442 131.848 132.393 131.786L128.309 126.465C128.316 126.547 128.32 126.628 128.324 126.707C128.327 126.785 128.329 126.859 128.329 126.928V131.958H127.491V124.899H127.984C128.027 124.899 128.063 124.902 128.092 124.908C128.122 124.912 128.148 124.92 128.171 124.933C128.194 124.943 128.217 124.959 128.24 124.982C128.263 125.002 128.288 125.028 128.314 125.061L132.398 130.377C132.392 130.292 132.385 130.21 132.378 130.131C132.375 130.049 132.374 129.971 132.374 129.899V124.899H133.211ZM147.925 125.702H145.639V131.958H144.688V125.702H142.397V124.899H147.925V125.702ZM158.134 128.431C158.134 128.96 158.05 129.446 157.882 129.889C157.715 130.329 157.478 130.709 157.173 131.027C156.867 131.346 156.5 131.594 156.069 131.771C155.642 131.945 155.169 132.032 154.65 132.032C154.132 132.032 153.659 131.945 153.232 131.771C152.805 131.594 152.438 131.346 152.133 131.027C151.827 130.709 151.591 130.329 151.423 129.889C151.256 129.446 151.172 128.96 151.172 128.431C151.172 127.902 151.256 127.418 151.423 126.978C151.591 126.534 151.827 126.153 152.133 125.835C152.438 125.513 152.805 125.263 153.232 125.086C153.659 124.908 154.132 124.82 154.65 124.82C155.169 124.82 155.642 124.908 156.069 125.086C156.5 125.263 156.867 125.513 157.173 125.835C157.478 126.153 157.715 126.534 157.882 126.978C158.05 127.418 158.134 127.902 158.134 128.431ZM157.153 128.431C157.153 127.997 157.094 127.608 156.976 127.263C156.858 126.919 156.69 126.628 156.473 126.391C156.257 126.152 155.994 125.968 155.685 125.84C155.376 125.711 155.031 125.647 154.65 125.647C154.273 125.647 153.93 125.711 153.621 125.84C153.312 125.968 153.048 126.152 152.828 126.391C152.611 126.628 152.443 126.919 152.325 127.263C152.207 127.608 152.148 127.997 152.148 128.431C152.148 128.865 152.207 129.254 152.325 129.599C152.443 129.94 152.611 130.231 152.828 130.471C153.048 130.707 153.312 130.889 153.621 131.018C153.93 131.142 154.273 131.205 154.65 131.205C155.031 131.205 155.376 131.142 155.685 131.018C155.994 130.889 156.257 130.707 156.473 130.471C156.69 130.231 156.858 129.94 156.976 129.599C157.094 129.254 157.153 128.865 157.153 128.431ZM168.576 128.431C168.576 128.96 168.492 129.441 168.325 129.875C168.157 130.308 167.921 130.679 167.615 130.988C167.31 131.297 166.942 131.536 166.512 131.707C166.085 131.875 165.612 131.958 165.093 131.958H162.457V124.899H165.093C165.612 124.899 166.085 124.984 166.512 125.155C166.942 125.322 167.31 125.562 167.615 125.874C167.921 126.183 168.157 126.554 168.325 126.987C168.492 127.421 168.576 127.902 168.576 128.431ZM167.596 128.431C167.596 127.997 167.536 127.61 167.418 127.268C167.3 126.927 167.132 126.638 166.916 126.401C166.699 126.165 166.436 125.984 166.127 125.859C165.819 125.734 165.474 125.672 165.093 125.672H163.413V131.185H165.093C165.474 131.185 165.819 131.123 166.127 130.998C166.436 130.873 166.699 130.694 166.916 130.461C167.132 130.224 167.3 129.935 167.418 129.594C167.536 129.252 167.596 128.865 167.596 128.431ZM176.466 129.338L175.357 126.465C175.324 126.38 175.29 126.281 175.254 126.17C175.218 126.055 175.183 125.933 175.15 125.805C175.081 126.071 175.011 126.293 174.938 126.47L173.83 129.338H176.466ZM178.456 131.958H177.717C177.632 131.958 177.563 131.937 177.51 131.894C177.458 131.852 177.418 131.798 177.392 131.732L176.732 130.027H173.564L172.904 131.732C172.884 131.791 172.846 131.844 172.79 131.89C172.735 131.936 172.666 131.958 172.583 131.958H171.844L174.667 124.899H175.633L178.456 131.958ZM184.299 129.145V131.958H183.343V129.145L180.756 124.899H181.594C181.679 124.899 181.747 124.92 181.796 124.963C181.845 125.002 181.888 125.055 181.924 125.12L183.54 127.864C183.599 127.979 183.653 128.088 183.702 128.19C183.752 128.288 183.794 128.388 183.831 128.49C183.867 128.388 183.908 128.288 183.954 128.19C184 128.088 184.051 127.979 184.106 127.864L185.717 125.12C185.747 125.064 185.788 125.014 185.841 124.968C185.893 124.922 185.96 124.899 186.043 124.899H186.885L184.299 129.145Z" fill="#E6F1F9"/>
</svg>
