<svg width="43" height="42" viewBox="0 0 43 42" fill="none" xmlns="http://www.w3.org/2000/svg">
<g clip-path="url(#clip0_1_149)">
<path d="M42.9998 9.92953C42.407 11.6344 41.8108 13.3384 41.223 15.0449C40.2025 18.0103 39.1879 20.9782 38.1699 23.9444C37.8202 24.9638 37.2409 25.3662 36.1272 25.3662C29.8737 25.3662 23.6193 25.3662 17.3657 25.3662C16.4036 25.3662 16.0903 25.6056 15.8574 26.5107C15.7583 26.895 15.6448 27.2759 15.5576 27.6626C15.417 28.2913 15.7761 28.7792 16.4333 28.8615C16.6001 28.882 16.7704 28.8754 16.9397 28.8754C23.9115 28.8754 30.884 28.8746 37.8557 28.8804C38.175 28.8804 38.5121 28.896 38.8102 28.9923C39.6283 29.2581 40.0873 30.0669 39.9544 30.9209C39.8333 31.7018 39.1286 32.3115 38.291 32.3584C38.1784 32.365 38.0658 32.365 37.9531 32.365C30.8688 32.365 23.7836 32.3674 16.6992 32.3641C14.3558 32.3625 12.5138 30.9283 12.0235 28.738C11.8676 28.0428 11.91 27.3508 12.0946 26.6662C12.9559 23.4655 12.8721 23.7074 11.8541 20.7404C10.0976 15.6225 8.34111 10.5047 6.58379 5.38764C6.31024 4.59199 5.95454 4.34514 5.08816 4.34432C4.1447 4.3435 3.2004 4.34679 2.25695 4.3435C1.21526 4.34021 0.447966 3.72804 0.326858 2.80979C0.206598 1.8973 0.78588 1.14114 1.81148 0.872081C1.85044 0.861385 1.88516 0.835055 1.92243 0.815308H7.75421C8.6875 1.03829 9.15245 1.66033 9.42092 2.52592C9.8503 3.9107 10.3483 5.27574 10.8183 6.64818C11.1588 7.6413 11.4662 7.85688 12.5384 7.85688C19.8717 7.85688 27.2042 7.85688 34.5376 7.85688C36.7048 7.85688 38.8729 7.86181 41.0401 7.85359C41.5863 7.85194 42.0928 7.9622 42.451 8.37278C42.6797 8.63525 42.8203 8.97096 43.0007 9.27293V9.92953H42.9998Z" fill="#FD9E02"/>
<path d="M14.7422 34.1348C16.74 34.1348 18.3331 35.6792 18.3373 37.6202C18.3415 39.5562 16.7451 41.1237 14.76 41.1311C12.7604 41.1385 11.131 39.5587 11.1361 37.6169C11.1411 35.6882 12.7494 34.1348 14.7422 34.1348Z" fill="#FD9E02"/>
<path d="M36.3882 34.1356C38.3861 34.1389 39.9749 35.6866 39.9749 37.6293C39.9749 39.5645 38.3751 41.1286 36.3899 41.1319C34.3912 41.1361 32.7652 39.5522 32.7736 37.6103C32.7821 35.6825 34.3946 34.1323 36.3874 34.1356H36.3882Z" fill="#FD9E02"/>
</g>
<defs>
<clipPath id="clip0_1_149">
<rect width="42.6882" height="40.3167" fill="white" transform="translate(0.311768 0.815308)"/>
</clipPath>
</defs>
</svg>
