<svg width="397" height="242" viewBox="0 0 397 242" fill="none" xmlns="http://www.w3.org/2000/svg">
<path d="M394.541 2.49658C394.541 23.815 393.218 51.0518 381.037 69.6804V69.6804C367.413 90.518 344.732 103.663 321.656 113.008C315.633 115.447 309.651 117.576 304.518 118.86C282.15 124.452 236.292 126.869 233.318 127.021C233.213 127.026 233.114 127.031 233.009 127.036L208.316 128.282C200.657 128.669 193.037 129.309 185.436 130.326C159.367 133.813 95.7196 143.141 71.2085 154.035C53.9749 161.695 32.846 177.429 26.1971 196.046C21.4196 209.423 22.4461 224.608 22.4461 239.224M22.4461 239.224C22.4461 239.224 17.3232 234.879 15.6944 232.889C12.2933 228.732 7.44345 223.137 2.94113 220.385C-0.294552 218.408 22.8477 220.052 26.1971 220.052C30.8221 220.052 35.4946 219.867 40.1173 220.052V220.052C46.0193 220.288 33.8703 227.589 29.7319 231.804C27.8925 233.677 25.5161 236.097 22.4461 239.224Z" stroke="white" stroke-width="4" stroke-linecap="round"/>
</svg>
