<svg width="21" height="19" viewBox="0 0 21 19" fill="none" xmlns="http://www.w3.org/2000/svg">
<path d="M3.91592 0.75C4.30264 0.75 4.65421 1.06641 4.72452 1.45312L4.79483 1.875H19.5605C20.2987 1.875 20.8612 2.61328 20.6503 3.31641L18.7519 10.0664C18.6112 10.5586 18.1894 10.875 17.662 10.875H6.51749L6.83389 12.5625H17.6972C18.1542 12.5625 18.5409 12.9492 18.5409 13.4062C18.5409 13.8984 18.1542 14.25 17.6972 14.25H6.13077C5.74405 14.25 5.39249 13.9688 5.32217 13.582L3.2128 2.4375H1.38467C0.892487 2.4375 0.540924 2.08594 0.540924 1.59375C0.540924 1.13672 0.892487 0.75 1.38467 0.75H3.91592ZM5.04092 17.0625C5.04092 16.1484 5.77921 15.375 6.72842 15.375C7.64249 15.375 8.41592 16.1484 8.41592 17.0625C8.41592 18.0117 7.64249 18.75 6.72842 18.75C5.77921 18.75 5.04092 18.0117 5.04092 17.0625ZM18.5409 17.0625C18.5409 18.0117 17.7675 18.75 16.8534 18.75C15.9042 18.75 15.1659 18.0117 15.1659 17.0625C15.1659 16.1484 15.9042 15.375 16.8534 15.375C17.7675 15.375 18.5409 16.1484 18.5409 17.0625Z" fill="#011936"/>
</svg>
