<svg width="20" height="21" viewBox="0 0 20 21" fill="none" xmlns="http://www.w3.org/2000/svg">
<path d="M9.0625 13.9375V11.4375H6.5625C6.01562 11.4375 5.625 11.0469 5.625 10.5C5.625 9.99219 6.01562 9.5625 6.5625 9.5625H9.0625V7.0625C9.0625 6.55469 9.45312 6.125 10 6.125C10.5078 6.125 10.9375 6.55469 10.9375 7.0625V9.5625H13.4375C13.9453 9.5625 14.375 9.99219 14.375 10.5C14.375 11.0469 13.9453 11.4375 13.4375 11.4375H10.9375V13.9375C10.9375 14.4844 10.5078 14.875 10 14.875C9.45312 14.875 9.0625 14.4844 9.0625 13.9375ZM20 10.5C20 16.0469 15.5078 20.5 10 20.5C4.45312 20.5 0 16.0469 0 10.5C0 4.99219 4.45312 0.5 10 0.5C15.5078 0.5 20 4.99219 20 10.5ZM10 2.375C5.50781 2.375 1.875 6.04688 1.875 10.5C1.875 14.9922 5.50781 18.625 10 18.625C14.4531 18.625 18.125 14.9922 18.125 10.5C18.125 6.04688 14.4531 2.375 10 2.375Z" fill="#FD9E02"/>
</svg>
