<svg width="19" height="19" viewBox="0 0 19 19" fill="none" xmlns="http://www.w3.org/2000/svg">
<path d="M17.9648 14.1532L17.1211 17.704C17.0156 18.2313 16.5938 18.5829 16.0664 18.5829C7.20703 18.5477 0 11.3407 0 2.48132C0 1.95398 0.316406 1.5321 0.84375 1.42664L4.39453 0.582886C4.88672 0.477417 5.41406 0.758667 5.625 1.2157L7.27734 5.04773C7.45312 5.50476 7.34766 6.0321 6.96094 6.31335L5.0625 7.86023C6.25781 10.286 8.22656 12.2548 10.6875 13.4501L12.2344 11.5516C12.5156 11.2001 13.043 11.0594 13.5 11.2352L17.332 12.8876C17.7891 13.1337 18.0703 13.661 17.9648 14.1532Z" fill="#011936"/>
</svg>
