<svg width="80" height="53" viewBox="0 0 80 53" fill="none" xmlns="http://www.w3.org/2000/svg">
<path d="M0.351567 17.1445C0.351568 14.8008 0.839849 12.6035 1.81641 10.5527C2.69532 8.50195 3.91602 6.6953 5.47852 5.13281C6.94337 3.66796 8.70118 2.49609 10.752 1.61718C12.8027 0.738275 15 0.298822 17.3438 0.298822C19.6875 0.298822 21.8848 0.738275 23.9356 1.61718C25.9863 2.49609 27.793 3.66796 29.3555 5.13281C30.8203 6.69531 31.9922 8.50195 32.8711 10.5527C33.75 12.6035 34.1895 14.8008 34.1895 17.1445C34.1895 21.0508 33.5547 24.6641 32.2852 27.9844C31.0156 31.4023 29.3066 34.5762 27.1582 37.5059C24.9121 40.4355 22.373 43.1211 19.541 45.5625C16.6113 48.0039 13.584 50.2012 10.459 52.1543L5.03906 47.4668C6.89453 45.8066 8.60352 43.707 10.166 41.168C11.7285 38.6289 12.7539 36.0898 13.2422 33.5508C9.53125 32.6719 6.45508 30.6699 4.01368 27.5449C1.57227 24.5176 0.351567 21.0508 0.351567 17.1445ZM45.3223 17.1445C45.3223 14.8008 45.8106 12.6035 46.7871 10.5527C47.666 8.50195 48.8867 6.69531 50.4492 5.13281C51.9141 3.66797 53.7207 2.49609 55.8691 1.61718C57.9199 0.738278 60.1172 0.298826 62.4609 0.298826C64.8047 0.298826 67.002 0.738279 69.0527 1.61719C71.0059 2.49609 72.7637 3.66797 74.3262 5.13281C75.791 6.69531 76.9629 8.50195 77.8418 10.5527C78.7207 12.6035 79.1602 14.8008 79.1602 17.1445C79.1602 21.0508 78.5254 24.6641 77.2559 27.9844C75.9863 31.4023 74.2773 34.5762 72.1289 37.5059C69.8828 40.4355 67.3438 43.1211 64.5117 45.5625C61.582 48.0039 58.5547 50.2012 55.4297 52.1543L50.1563 47.4668C51.9141 45.8066 53.5742 43.707 55.1367 41.168C56.6992 38.6289 57.7246 36.0898 58.2129 33.5508C54.502 32.6719 51.4258 30.6699 48.9844 27.5449C46.543 24.5176 45.3223 21.0508 45.3223 17.1445Z" fill="url(#paint0_linear_342_684)"/>
<defs>
<linearGradient id="paint0_linear_342_684" x1="37.5" y1="72" x2="37.5" y2="-17" gradientUnits="userSpaceOnUse">
<stop stop-color="#FD9B02"/>
<stop offset="1" stop-color="#FD7102"/>
</linearGradient>
</defs>
</svg>
