<svg width="80" height="53" viewBox="0 0 80 53" fill="none" xmlns="http://www.w3.org/2000/svg">
<mask id="path-1-outside-1_324_1126" maskUnits="userSpaceOnUse" x="-0.999998" y="-1.00001" width="82" height="55" fill="black">
<rect fill="white" x="-0.999998" y="-1.00001" width="82" height="55"/>
<path d="M0.351567 17.1445C0.351568 14.8008 0.839849 12.6035 1.81641 10.5527C2.69532 8.50195 3.91602 6.6953 5.47852 5.13281C6.94337 3.66796 8.70118 2.49609 10.752 1.61718C12.8027 0.738275 15 0.298822 17.3438 0.298822C19.6875 0.298822 21.8848 0.738275 23.9356 1.61718C25.9863 2.49609 27.793 3.66796 29.3555 5.13281C30.8203 6.69531 31.9922 8.50195 32.8711 10.5527C33.75 12.6035 34.1895 14.8008 34.1895 17.1445C34.1895 21.0508 33.5547 24.6641 32.2852 27.9844C31.0156 31.4023 29.3066 34.5762 27.1582 37.5059C24.9121 40.4355 22.373 43.1211 19.541 45.5625C16.6113 48.0039 13.584 50.2012 10.459 52.1543L5.03906 47.4668C6.89453 45.8066 8.60352 43.707 10.166 41.168C11.7285 38.6289 12.7539 36.0898 13.2422 33.5508C9.53125 32.6719 6.45508 30.6699 4.01368 27.5449C1.57227 24.5176 0.351567 21.0508 0.351567 17.1445ZM45.3223 17.1445C45.3223 14.8008 45.8106 12.6035 46.7871 10.5527C47.666 8.50195 48.8867 6.69531 50.4492 5.13281C51.9141 3.66797 53.7207 2.49609 55.8691 1.61718C57.9199 0.738278 60.1172 0.298826 62.4609 0.298826C64.8047 0.298826 67.002 0.738279 69.0527 1.61719C71.0059 2.49609 72.7637 3.66797 74.3262 5.13281C75.791 6.69531 76.9629 8.50195 77.8418 10.5527C78.7207 12.6035 79.1602 14.8008 79.1602 17.1445C79.1602 21.0508 78.5254 24.6641 77.2559 27.9844C75.9863 31.4023 74.2773 34.5762 72.1289 37.5059C69.8828 40.4355 67.3438 43.1211 64.5117 45.5625C61.582 48.0039 58.5547 50.2012 55.4297 52.1543L50.1563 47.4668C51.9141 45.8066 53.5742 43.707 55.1367 41.168C56.6992 38.6289 57.7246 36.0898 58.2129 33.5508C54.502 32.6719 51.4258 30.6699 48.9844 27.5449C46.543 24.5176 45.3223 21.0508 45.3223 17.1445Z"/>
</mask>
<path d="M1.81641 10.5527L2.71927 10.9827L2.72777 10.9648L2.73556 10.9466L1.81641 10.5527ZM29.3555 5.13281L30.085 4.44886L30.0629 4.42533L30.0394 4.40327L29.3555 5.13281ZM32.2852 27.9844L31.3511 27.6272L31.3477 27.6362L32.2852 27.9844ZM27.1582 37.5059L27.9518 38.1143L27.9583 38.1058L27.9646 38.0972L27.1582 37.5059ZM19.541 45.5625L20.1812 46.3307L20.1876 46.3254L20.194 46.3199L19.541 45.5625ZM10.459 52.1543L9.80483 52.9107L10.3631 53.3935L10.989 53.0023L10.459 52.1543ZM5.03906 47.4668L4.37227 46.7215L3.5251 47.4795L4.38491 48.2232L5.03906 47.4668ZM13.2422 33.5508L14.2242 33.7396L14.4052 32.7986L13.4727 32.5777L13.2422 33.5508ZM4.01368 27.5449L4.8017 26.9293L4.79694 26.9232L4.79209 26.9172L4.01368 27.5449ZM46.7871 10.5527L47.69 10.9827L47.6985 10.9648L47.7063 10.9467L46.7871 10.5527ZM55.8691 1.61718L56.2478 2.54273L56.2554 2.53959L56.2631 2.53633L55.8691 1.61718ZM69.0527 1.61719L69.4631 0.705267L69.4549 0.701582L69.4467 0.698042L69.0527 1.61719ZM74.3262 5.13281L75.0557 4.44887L75.0337 4.42534L75.0101 4.40327L74.3262 5.13281ZM77.2559 27.9844L76.3218 27.6272L76.3184 27.6362L77.2559 27.9844ZM72.1289 37.5059L72.9225 38.1143L72.929 38.1058L72.9353 38.0972L72.1289 37.5059ZM64.5117 45.5625L65.1519 46.3307L65.1583 46.3254L65.1647 46.3199L64.5117 45.5625ZM55.4297 52.1543L54.7653 52.9017L55.3249 53.3991L55.9597 53.0023L55.4297 52.1543ZM50.1563 47.4668L49.4696 46.7398L48.6762 47.4891L49.4919 48.2142L50.1563 47.4668ZM58.2129 33.5508L59.1949 33.7396L59.3759 32.7986L58.4434 32.5777L58.2129 33.5508ZM48.9844 27.5449L49.7724 26.9293L49.7676 26.9232L49.7628 26.9172L48.9844 27.5449ZM1.35157 17.1445C1.35157 14.9446 1.80873 12.8948 2.71927 10.9827L0.913549 10.1228C-0.129031 12.3122 -0.648432 14.6569 -0.648433 17.1445L1.35157 17.1445ZM2.73556 10.9466C3.56485 9.01163 4.71398 7.31156 6.18563 5.83991L4.77141 4.4257C3.11806 6.07905 1.82579 7.99226 0.897268 10.1588L2.73556 10.9466ZM6.18563 5.83991C7.55379 4.47176 9.20295 3.36901 11.1459 2.53632L10.358 0.698037C8.19941 1.62316 6.33295 2.86417 4.77141 4.4257L6.18563 5.83991ZM11.1459 2.53632C13.0659 1.71344 15.1285 1.29882 17.3438 1.29882L17.3438 -0.701178C14.8715 -0.701178 12.5395 -0.236892 10.358 0.698037L11.1459 2.53632ZM17.3438 1.29882C19.559 1.29882 21.6216 1.71344 23.5416 2.53633L24.3295 0.698038C22.148 -0.236891 19.816 -0.701178 17.3438 -0.701178L17.3438 1.29882ZM23.5416 2.53633C25.49 3.37132 27.1975 4.48039 28.6715 5.86235L30.0394 4.40327C28.3885 2.85553 26.4827 1.62085 24.3295 0.698038L23.5416 2.53633ZM28.6259 5.81675C30.0079 7.29083 31.117 8.99832 31.952 10.9467L33.7902 10.1588C32.8674 8.00558 31.6327 6.09979 30.085 4.44886L28.6259 5.81675ZM31.952 10.9467C32.7748 12.8667 33.1895 14.9292 33.1895 17.1445L35.1895 17.1445C35.1895 14.6723 34.7252 12.3403 33.7902 10.1588L31.952 10.9467ZM33.1895 17.1445C33.1895 20.9408 32.5729 24.4317 31.3511 27.6272L33.2192 28.3415C34.5365 24.8964 35.1895 21.1608 35.1895 17.1445L33.1895 17.1445ZM31.3477 27.6362C30.1103 30.9677 28.4453 34.0597 26.3518 36.9145L27.9646 38.0972C30.168 35.0926 31.921 31.8369 33.2226 28.3326L31.3477 27.6362ZM26.3646 36.8974C24.1607 39.7721 21.6689 42.4078 18.8881 44.8051L20.194 46.3199C23.0772 43.8344 25.6635 41.099 27.9518 38.1143L26.3646 36.8974ZM18.9008 44.7943C16.0048 47.2076 13.0142 49.378 9.92899 51.3063L10.989 53.0023C14.1538 51.0243 17.2179 48.8002 20.1812 46.3307L18.9008 44.7943ZM11.1131 51.3979L5.69322 46.7104L4.38491 48.2232L9.80483 52.9107L11.1131 51.3979ZM5.70586 48.212C7.64585 46.4762 9.41421 44.2977 11.0177 41.6921L9.31436 40.6439C7.79283 43.1164 6.14321 45.137 4.37227 46.7215L5.70586 48.212ZM11.0177 41.6921C12.634 39.0656 13.7099 36.4141 14.2242 33.7396L12.2602 33.3619C11.7979 35.7656 10.8231 38.1922 9.31436 40.6439L11.0177 41.6921ZM13.4727 32.5777C9.99211 31.7534 7.10927 29.883 4.8017 26.9293L3.22565 28.1606C5.80089 31.4569 9.07039 33.5904 13.0117 34.5239L13.4727 32.5777ZM4.79209 26.9172C2.49476 24.0685 1.35157 20.8235 1.35157 17.1445L-0.648433 17.1445C-0.648433 21.2781 0.649777 24.9667 3.23526 28.1727L4.79209 26.9172ZM46.3223 17.1445C46.3223 14.9447 46.7794 12.8948 47.69 10.9827L45.8843 10.1228C44.8417 12.3122 44.3223 14.6569 44.3223 17.1445L46.3223 17.1445ZM47.7063 10.9467C48.5356 9.01164 49.6847 7.31157 51.1563 5.83992L49.7421 4.4257C48.0888 6.07905 46.7965 7.99226 45.868 10.1588L47.7063 10.9467ZM51.1563 5.83992C52.5166 4.47966 54.2074 3.37742 56.2478 2.54273L55.4905 0.69164C53.234 1.61477 51.3115 2.85627 49.7421 4.4257L51.1563 5.83992ZM56.2631 2.53633C58.1831 1.71344 60.2457 1.29883 62.4609 1.29883L62.4609 -0.701174C59.9887 -0.701174 57.6567 -0.236888 55.4752 0.698041L56.2631 2.53633ZM62.4609 1.29883C64.6762 1.29883 66.7388 1.71345 68.6588 2.53633L69.4467 0.698042C67.2652 -0.236887 64.9332 -0.701174 62.4609 -0.701174L62.4609 1.29883ZM68.6424 2.5291C70.4949 3.36273 72.1602 4.47298 73.6422 5.86235L75.0101 4.40327C73.3671 2.86296 71.5169 1.62945 69.4631 0.705267L68.6424 2.5291ZM73.5966 5.81676C74.9786 7.29083 76.0877 8.99832 76.9227 10.9467L78.7609 10.1588C77.8381 8.00558 76.6035 6.09979 75.0557 4.44887L73.5966 5.81676ZM76.9227 10.9467C77.7455 12.8667 78.1602 14.9292 78.1602 17.1445L80.1602 17.1445C80.1602 14.6723 79.6959 12.3403 78.7609 10.1588L76.9227 10.9467ZM78.1602 17.1445C78.1602 20.9408 77.5436 24.4317 76.3218 27.6272L78.1899 28.3415C79.5072 24.8964 80.1602 21.1608 80.1602 17.1445L78.1602 17.1445ZM76.3184 27.6362C75.081 30.9677 73.416 34.0597 71.3225 36.9145L72.9353 38.0972C75.1387 35.0927 76.8917 31.8369 78.1933 28.3326L76.3184 27.6362ZM71.3353 36.8974C69.1314 39.7721 66.6396 42.4078 63.8588 44.8051L65.1647 46.3199C68.0479 43.8344 70.6342 41.099 72.9225 38.1143L71.3353 36.8974ZM63.8715 44.7943C60.9755 47.2076 57.9849 49.3781 54.8997 51.3063L55.9597 53.0023C59.1245 51.0243 62.1886 48.8002 65.1519 46.3307L63.8715 44.7943ZM56.0941 51.4069L50.8206 46.7194L49.4919 48.2142L54.7653 52.9017L56.0941 51.4069ZM50.8429 48.1938C52.6771 46.4615 54.3902 44.2891 55.9884 41.6921L54.2851 40.6439C52.7582 43.1249 51.151 45.1518 49.4696 46.7398L50.8429 48.1938ZM55.9884 41.6921C57.6047 39.0656 58.6806 36.4141 59.1949 33.7396L57.2309 33.3619C56.7686 35.7656 55.7938 38.1922 54.2851 40.6439L55.9884 41.6921ZM58.4434 32.5777C54.9628 31.7534 52.08 29.883 49.7724 26.9293L48.1964 28.1606C50.7716 31.4569 54.0411 33.5904 57.9824 34.5239L58.4434 32.5777ZM49.7628 26.9172C47.4655 24.0685 46.3223 20.8235 46.3223 17.1445L44.3223 17.1445C44.3223 21.2781 45.6205 24.9667 48.206 28.1727L49.7628 26.9172Z" fill="url(#paint0_linear_324_1126)" mask="url(#path-1-outside-1_324_1126)"/>
<defs>
<linearGradient id="paint0_linear_324_1126" x1="37.5" y1="-17" x2="37.5" y2="72" gradientUnits="userSpaceOnUse">
<stop stop-color="#FD9E02"/>
<stop offset="1" stop-color="#FD7102"/>
</linearGradient>
</defs>
</svg>
